<svg width="400" height="96" viewBox="0 0 400 96" fill="none" xmlns="http://www.w3.org/2000/svg">
<path d="M201.166 41.9589H198.776L188.804 15.7934L178.873 41.9589H176.483L187.856 12.082H189.793L201.166 41.9589Z" fill="#05147D"/>
<path d="M208.114 18.0201V21.381H212.77V23.6903H208.114V42.0412H205.909V23.6903H202.881V21.381H205.909V18.0613C205.909 14.3087 207.228 12.7623 208.938 12.1231C209.907 11.8428 210.928 11.7937 211.919 11.9799C212.91 12.1661 213.844 12.5824 214.645 13.1953L213.45 14.7623C212.94 14.3986 212.357 14.1496 211.742 14.0321C211.127 13.9147 210.494 13.9316 209.886 14.0819C209.165 14.3912 208.135 15.0303 208.135 18.0201" fill="#05147D"/>
<path d="M225.218 41.0535C224.504 41.6258 223.655 42.0043 222.753 42.1524C221.851 42.3005 220.926 42.2132 220.067 41.8988C218.522 41.2597 217.636 40.1668 217.636 36.0637V9.93945H219.902V36.0637C219.902 39.0122 220.314 39.6926 221.221 39.9813C221.761 40.1305 222.328 40.158 222.88 40.0617C223.432 39.9655 223.956 39.7479 224.414 39.4246L225.218 41.0535Z" fill="#05147D"/>
<path d="M247.142 31.6702C247.229 33.0236 247.038 34.3806 246.581 35.6573C246.123 36.9339 245.409 38.1031 244.482 39.0925C243.556 40.082 242.436 40.8706 241.192 41.4098C239.949 41.9489 238.608 42.2271 237.253 42.2271C235.898 42.2271 234.557 41.9489 233.313 41.4098C232.07 40.8706 230.95 40.082 230.023 39.0925C229.096 38.1031 228.382 36.9339 227.924 35.6573C227.467 34.3806 227.276 33.0236 227.363 31.6702C227.276 30.3168 227.467 28.9598 227.924 27.6831C228.382 26.4065 229.096 25.2373 230.023 24.2479C230.95 23.2584 232.07 22.4698 233.313 21.9306C234.557 21.3915 235.898 21.1133 237.253 21.1133C238.608 21.1133 239.949 21.3915 241.192 21.9306C242.436 22.4698 243.556 23.2584 244.482 24.2479C245.409 25.2373 246.123 26.4065 246.581 27.6831C247.038 28.9598 247.229 30.3168 247.142 31.6702ZM244.876 31.6702C244.876 26.9691 241.991 23.2164 237.294 23.2164C236.223 23.2298 235.166 23.4635 234.189 23.9031C233.212 24.3427 232.336 24.9787 231.615 25.7716C230.895 26.5645 230.345 27.4974 229.999 28.5121C229.654 29.5269 229.521 30.6019 229.609 31.6702C229.519 32.7422 229.649 33.8213 229.993 34.8408C230.336 35.8602 230.885 36.7982 231.605 37.5966C232.326 38.395 233.203 39.0368 234.181 39.4822C235.16 39.9275 236.219 40.167 237.294 40.1858C241.991 40.1858 244.876 36.3713 244.876 31.732" fill="#05147D"/>
<path d="M261.365 21.1361L260.994 23.3011H260.273C256.935 23.3011 253.948 25.4867 253.948 30.9507V42.0025H251.743V21.3835H253.948V24.4145C254.63 23.3628 255.569 22.5023 256.675 21.9143C257.782 21.3263 259.02 21.0301 260.273 21.0536C260.636 21.0316 261.001 21.0316 261.365 21.0536" fill="#05147D"/>
<path d="M267.576 15.8762C267.571 16.2921 267.405 16.6898 267.113 16.9859C266.821 17.2819 266.426 17.4532 266.01 17.4638C265.59 17.4638 265.186 17.2966 264.889 16.9988C264.591 16.7011 264.424 16.2973 264.424 15.8762C264.421 15.6679 264.46 15.4611 264.539 15.2683C264.618 15.0756 264.735 14.9008 264.884 14.7544C265.032 14.6081 265.208 14.4932 265.402 14.4167C265.595 14.3401 265.802 14.3036 266.01 14.3091C266.426 14.3091 266.824 14.4742 267.118 14.7681C267.411 15.062 267.576 15.4606 267.576 15.8762ZM264.898 21.3815H267.123V42.0004H264.898V21.3815Z" fill="#05147D"/>
<path d="M283.258 40.6195C282.45 41.3483 281.467 41.8549 280.406 42.0898C279.344 42.3248 278.24 42.2799 277.2 41.9598C275.49 41.3 274.172 39.7329 274.172 35.939V23.6914H271.02V21.382H274.172V16.1448L276.397 15.5469V21.382H281.074V23.6914H276.397V36.0627C276.397 39.0113 277.406 39.6504 278.148 39.8979C278.82 40.0721 279.525 40.0786 280.2 39.9169C280.876 39.7551 281.501 39.43 282.021 38.97L283.258 40.6195Z" fill="#05147D"/>
<path d="M302.885 30.9071V41.9589H300.66V30.9071C300.66 25.4431 298.332 23.2575 294.83 23.2575C291.327 23.2575 288.649 25.4431 288.649 30.9071V41.9589H286.424V12.082H288.649V24.4534C289.295 23.4004 290.206 22.5357 291.29 21.9459C292.375 21.356 293.596 21.0617 294.83 21.0925C300.496 21.0925 302.885 25.0514 302.885 30.9484" fill="#05147D"/>
<path d="M337.613 30.9071V41.9588H335.553V30.9071C335.553 25.443 333.328 23.2574 329.846 23.2574C326.364 23.2574 324.262 25.443 324.262 30.9071V41.9588H321.955V30.9071C321.955 25.443 319.73 23.2574 316.248 23.2574C312.766 23.2574 310.665 25.443 310.665 30.9071V41.9588H308.439V21.3399H310.665V24.2059C311.388 23.1289 312.387 22.2659 313.557 21.7066C314.728 21.1473 316.026 20.9123 317.318 21.026C318.61 21.1397 319.848 21.5979 320.902 22.353C321.957 23.1082 322.79 24.1325 323.315 25.3193C323.891 24.0274 324.832 22.9317 326.021 22.1663C327.21 21.401 328.597 20.9991 330.011 21.01C335.676 21.01 337.695 24.9688 337.695 30.8658" fill="#05147D"/>
<path d="M346.398 15.8758C346.393 16.2952 346.224 16.6959 345.927 16.9925C345.631 17.2891 345.231 17.4581 344.812 17.4634C344.394 17.458 343.996 17.2884 343.703 16.9912C343.41 16.694 343.246 16.2933 343.246 15.8758C343.243 15.6692 343.282 15.4642 343.359 15.2728C343.437 15.0815 343.552 14.9076 343.698 14.7615C343.844 14.6155 344.018 14.5001 344.209 14.4224C344.4 14.3446 344.605 14.306 344.812 14.3087C345.019 14.306 345.225 14.3445 345.417 14.422C345.609 14.4996 345.785 14.6146 345.932 14.7604C346.08 14.9061 346.197 15.0798 346.277 15.2713C346.357 15.4628 346.398 15.6682 346.398 15.8758Z" fill="#05147D"/>
<path d="M345.921 21.3809H343.694V41.938H345.921V21.3809Z" fill="#05147D"/>
<path d="M366.788 36.2679L368.725 37.1546C367.937 38.6657 366.754 39.9351 365.304 40.8282C363.853 41.7212 362.187 42.2045 360.484 42.2268C359.124 42.252 357.773 42.0025 356.512 41.4934C355.251 40.9842 354.105 40.2257 353.144 39.2633C352.182 38.3009 351.424 37.1544 350.915 35.8922C350.407 34.63 350.157 33.2781 350.183 31.9173C350.073 30.5602 350.239 29.195 350.67 27.9037C351.101 26.6124 351.789 25.4215 352.691 24.4028C353.594 23.384 354.693 22.5583 355.922 21.9753C357.151 21.3922 358.486 21.0639 359.845 21.0099C361.539 20.932 363.223 21.3145 364.717 22.1168C366.212 22.919 367.461 24.1112 368.334 25.5667L366.459 26.577C365.767 25.4763 364.796 24.5782 363.646 23.9735C362.495 23.3689 361.205 23.0791 359.907 23.1337C358.828 23.1852 357.772 23.459 356.803 23.9379C355.835 24.4168 354.976 25.0905 354.28 25.9169C353.584 26.7433 353.065 27.7046 352.757 28.7406C352.449 29.7766 352.358 30.8651 352.49 31.938C352.436 33.0126 352.604 34.0868 352.982 35.094C353.36 36.1012 353.941 37.02 354.688 37.7933C355.436 38.5665 356.334 39.1779 357.328 39.5894C358.321 40.0009 359.388 40.2038 360.463 40.1855C361.76 40.1621 363.027 39.7972 364.137 39.1275C365.248 38.4579 366.162 37.5071 366.788 36.371" fill="#05147D"/>
<path d="M105.999 20.7213C105.97 20.7068 105.939 20.6992 105.906 20.6992C105.874 20.6992 105.843 20.7068 105.814 20.7213L95.2239 28.5565L89.3109 31.7318L86.6738 34.1442C86.6611 34.1662 86.5851 34.1189 86.5851 34.1442C86.5851 34.1696 86.4803 34.1944 86.4929 34.2164C86.4838 34.2357 86.5541 34.3504 86.6599 34.3504C86.6599 34.3718 86.6646 34.3929 86.6738 34.4123L96.7073 39.7113L104.722 40.3299C104.738 40.3373 104.756 40.3412 104.773 40.3412C104.791 40.3412 104.809 40.3373 104.825 40.3299C104.825 40.3299 111.008 30.8194 111.008 30.7163L106.054 20.8038C106.068 20.7787 105.918 20.8327 105.918 20.8038C105.918 20.7748 105.911 20.7464 105.896 20.7213" fill="#F18605"/>
<path fill-rule="evenodd" clip-rule="evenodd" d="M91.1607 8.91797L84.2246 17.8358L87.1972 25.7628L88.4954 27.321L94.4084 26.3106L100.713 21.1559L91.1607 8.91797Z" fill="#C01C75"/>
<path fill-rule="evenodd" clip-rule="evenodd" d="M105.995 8.16659L99.7733 4.4758L81.375 0.269531L87.1964 11.0532H91.903L100.7 21.1565L107.014 20.8089L109.045 21.2803L110.466 17.0946L105.995 8.16659Z" fill="#EE4263"/>
<path fill-rule="evenodd" clip-rule="evenodd" d="M81.3281 0.269531L69.3604 4.95489L57.5938 10.5378L65.3969 17.8363L70.3469 15.7956L76.3423 16.7647L84.5834 17.9812L91.8562 11.0532L81.3281 0.269531Z" fill="#F18605"/>
<path fill-rule="evenodd" clip-rule="evenodd" d="M64.6098 0L46.4794 4.74236L36.7549 9.29915L46.5707 10.8996L57.6049 10.5363L81.3393 0.268046L64.6098 0Z" fill="#D4F40E"/>
<path fill-rule="evenodd" clip-rule="evenodd" d="M57.6049 10.536L36.7549 9.29883L49.5433 25.7624L53.0929 26.9693L57.6049 24.7716L65.846 16.6392L57.6049 10.536Z" fill="#009B7C"/>
<path fill-rule="evenodd" clip-rule="evenodd" d="M36.7499 9.29883L10.2959 26.1239L20.2882 36.6602L37.6533 32.6985L53.0879 26.9693L36.7499 9.29883Z" fill="#45BF55"/>
<path fill-rule="evenodd" clip-rule="evenodd" d="M10.322 26.125L0 45.2388L9.6215 61.8989L14.8631 51.5258L20.3143 36.6613L10.322 26.125Z" fill="#97ED8A"/>
<path fill-rule="evenodd" clip-rule="evenodd" d="M36.4082 44.7217L45.5796 36.6627L53.0965 26.9688L20.2969 36.6597L28.7348 41.617L36.4082 44.7217Z" fill="#F1B605"/>
<path fill-rule="evenodd" clip-rule="evenodd" d="M64.6193 48.5774L62.0851 43.5876L57.7585 35.9999L53.1023 26.9688L45.5796 34.9714L36.4141 44.7217L49.5431 52.5166L70.1408 57.8353L64.6193 48.5774Z" fill="#C01C75"/>
<path fill-rule="evenodd" clip-rule="evenodd" d="M36.4497 44.7222L20.3383 36.6602L9.64551 61.8978L23.9519 64.7844H37.1296L36.6623 45.58L36.4497 44.7222Z" fill="#F57948"/>
<path fill-rule="evenodd" clip-rule="evenodd" d="M70.1408 57.8363L49.5586 50.8465L36.4141 44.7227L37.094 64.7849L47.5614 62.4248L66.388 69.361L70.1408 57.8363Z" fill="#DF4793"/>
<path fill-rule="evenodd" clip-rule="evenodd" d="M9.63152 61.8984L2.70898 80.7236L28.7097 84.0638L37.1156 64.7851L9.63152 61.8984Z" fill="#04D8D8"/>
<path fill-rule="evenodd" clip-rule="evenodd" d="M47.7823 61.2793L37.11 64.7845L28.7041 84.0632L56.9093 95.6923L53.5069 74.3155L47.7823 61.2793Z" fill="#001EB9"/>
<path fill-rule="evenodd" clip-rule="evenodd" d="M79.5333 66.7639L73.064 61.8566L70.159 57.8359L64.2666 68.2898L65.3968 69.3607L90.2673 83.2797L80.2599 67.3789L79.5333 66.7639Z" fill="#5C186A"/>
<path fill-rule="evenodd" clip-rule="evenodd" d="M90.2622 83.2797L64.656 68.5172L64.2615 68.2897L47.7793 61.2793L56.9063 95.6923L72.6675 89.3211L90.6125 95.6923L90.2622 83.2797Z" fill="#05147D"/>
<path fill-rule="evenodd" clip-rule="evenodd" d="M83.2334 63.416L84.1015 65.8832L84.4967 67.0012L90.2516 83.2813L79.5176 66.7655L83.2334 63.416Z" fill="#80196D"/>
<path fill-rule="evenodd" clip-rule="evenodd" d="M84.6005 17.9802L76.3594 16.7637L81.2518 24.7719L82.19 24.4752L88.4532 27.3206L84.6005 17.9802Z" fill="#D9D9D9"/>
<path fill-rule="evenodd" clip-rule="evenodd" d="M66.7269 32.8457L57.7646 36.0004L62.0912 43.5882L64.6254 48.578L70.1469 57.8359L71.4243 52.6193L79.2533 41.918L66.7269 32.8457Z" fill="#9C9B9B"/>
<path fill-rule="evenodd" clip-rule="evenodd" d="M82.2012 24.4746H80.9414L75.7525 30.0417L66.7285 32.8459L79.255 41.9183L82.2419 37.654L88.4644 27.32L82.2012 24.4746Z" fill="#C6C6C5"/>
<path fill-rule="evenodd" clip-rule="evenodd" d="M76.365 16.7621L70.3696 15.793L65.8576 16.6383L56.8748 23.69L53.1045 26.9684L57.7607 36.0614L66.7229 32.9067L75.7469 30.1025L82.1338 24.4736L76.365 16.7621ZM71.3428 24.7708L71.3998 26.3086L69.361 25.7617L67.3822 25.7107L66.3884 23.78V21.7982L67.1144 19.525L69.361 19.8165L70.9877 19.3807L71.3428 20.8073L73.2746 21.5457L73.3245 23.78L71.3428 24.7708Z" fill="#ECECEC"/>
<path fill-rule="evenodd" clip-rule="evenodd" d="M73.2843 21.5665L72.6044 20.5562L70.9974 19.4015L69.2049 19.1953H69.1843L70.7089 20.9273L71.43 22.2057L71.2858 23.5665L69.7406 24.3294L68.8547 23.7521L68.0718 22.6387L69.3612 20.8074L69.1843 19.1953L67.0828 19.5458L65.9909 21.216L65.8467 23.649L67.3507 25.6903L69.4522 26.5975L71.4094 26.2882L72.9958 24.9892L73.6551 23.381L73.2843 21.5665Z" fill="#D9D9D9"/>
<path fill-rule="evenodd" clip-rule="evenodd" d="M95.2417 28.638L88.4633 27.3184L82.2413 36.8856L79.2539 41.9166L81.2511 41.6164L83.8071 39.8135L85.2146 37.6529L86.5679 34.2876L89.205 31.8751L95.2417 28.638Z" fill="#001EB9"/>
<path fill-rule="evenodd" clip-rule="evenodd" d="M106.947 20.1855L100.684 21.1546L94.3798 26.3094L88.4668 27.3197L95.2451 28.6393L98.0059 26.6599L102.25 23.5671L106 20.866L107.791 23.5671L109.028 21.2784L106.947 20.1855Z" fill="#0B42FF"/>
<path fill-rule="evenodd" clip-rule="evenodd" d="M82.273 50.5339L79.2412 41.918L71.4121 52.6192L70.1348 57.8358L73.0398 61.8565L79.509 66.7638L88.6155 64.8256L91.1599 55.4883L82.273 50.5339Z" fill="#1A2040"/>
<path fill-rule="evenodd" clip-rule="evenodd" d="M98.3512 50.5368L96.6 39.5881L86.5664 34.2891L83.8057 39.8149L86.2054 46.5705L90.1689 51.5248L94.1324 54.4975L95.1233 57.4701L99.567 59.9686L99.9376 60.805L98.3512 50.5368Z" fill="#303473"/>
<path fill-rule="evenodd" clip-rule="evenodd" d="M113.063 35.3005L108.077 23.0734L106.017 20.8672L104.925 40.2078L105.033 41.6175L114.134 47.9193L113.063 35.3005Z" fill="#F1B605"/>
<path fill-rule="evenodd" clip-rule="evenodd" d="M114.123 47.918L104.913 40.2065L96.6104 39.5879L98.3616 50.5366L99.948 60.8048L108.005 55.4883L114.123 47.918Z" fill="#FFDB00"/>
<path fill-rule="evenodd" clip-rule="evenodd" d="M114.113 47.918L110.879 61.5059L104.76 71.5061L102.06 66.3885L99.9385 60.8048L114.113 47.918Z" fill="#FFD00F"/>
<path fill-rule="evenodd" clip-rule="evenodd" d="M104.755 71.5079L99.9335 60.8066L99.7481 67.8996L97.2139 74.91L94.6592 78.4977L100.716 75.5698L104.755 71.5079Z" fill="#FFDB00"/>
<path fill-rule="evenodd" clip-rule="evenodd" d="M99.5663 59.9818L98.3507 57.2601L96.7849 53.693L92.6644 50.0228L87.7609 45.3835L83.8052 39.8164L79.2519 41.9195L77.7686 52.7445L90.2126 55.5487L88.6262 64.8272L99.5663 59.9818Z" fill="#252C59"/>
<path fill-rule="evenodd" clip-rule="evenodd" d="M70.3519 21.8004L68.8441 23.7556L68.0605 22.6421L69.009 20.9102L70.3519 21.8004Z" fill="#D9D9D9"/>
<path fill-rule="evenodd" clip-rule="evenodd" d="M70.7351 20.9273L69.1899 19.1953L69.0457 20.9067L69.5195 22.4325L68.8809 23.7521L69.7668 24.3294L71.312 23.5665L71.4562 22.2057L70.7351 20.9273Z" fill="#1A2040"/>
<path d="M187.556 55.6914H193.407L205.768 84.5579H199.176L196.559 78.1248H184.321L181.704 84.5579H175.276L187.556 55.6914ZM194.19 72.5783L190.378 63.2792L186.587 72.5783H194.19Z" fill="#05147D"/>
<path d="M210.064 55.8984H221.767C228.586 55.8984 232.728 60.0222 232.728 65.8162C232.728 72.4555 227.577 75.8782 221.149 75.8782H216.348V84.4969H210.167L210.064 55.8984ZM221.355 70.3317C221.973 70.4101 222.6 70.3571 223.197 70.1762C223.793 69.9953 224.344 69.6906 224.815 69.282C225.285 68.8734 225.664 68.37 225.927 67.8048C226.19 67.2395 226.331 66.6251 226.341 66.0017C226.341 63.1769 224.383 61.6511 221.231 61.6511H216.348V70.4142L221.355 70.3317Z" fill="#05147D"/>
<path d="M237.686 55.8984H243.99V84.5794H237.686V55.8984Z" fill="#05147D"/>
<path d="M250.242 78.0215H256.876V84.5783H250.242V78.0215Z" fill="#05147D"/>
<path d="M272.646 55.6914H278.456L290.818 84.5579H284.246L281.609 78.1248H269.412L266.795 84.5579H260.367L272.646 55.6914ZM279.281 72.5783L275.469 63.2792L271.678 72.5783H279.281Z" fill="#05147D"/>
<path d="M293.686 72.2918V55.8997H299.99V72.1269C299.99 76.7868 302.318 79.1992 306.171 79.1992C310.024 79.1992 312.352 76.8692 312.352 72.3331V55.8379H318.656V72.0238C318.656 80.7044 313.773 84.9519 306.088 84.9519C298.404 84.9519 293.686 80.725 293.686 72.2918Z" fill="#05147D"/>
<path d="M325.084 55.8984H336.272C345.275 55.8984 351.497 62.0841 351.497 70.1461C351.497 78.2288 345.316 84.5794 336.272 84.5794H325.084V55.8984ZM336.272 78.8886C337.415 78.9439 338.557 78.7605 339.625 78.3498C340.693 77.9392 341.664 77.3104 342.477 76.5035C343.289 75.6966 343.924 74.7292 344.342 73.6631C344.76 72.597 344.951 71.4554 344.904 70.3111C344.96 69.1617 344.775 68.0134 344.361 66.9398C343.947 65.8663 343.313 64.8913 342.5 64.0776C341.687 63.2639 340.713 62.6295 339.64 62.2152C338.568 61.8008 337.42 61.6157 336.272 61.6717H331.451V78.9711L336.272 78.8886Z" fill="#05147D"/>
<path d="M357.333 55.8984H363.638V84.5794H357.333V55.8984Z" fill="#05147D"/>
<path d="M369.549 70.3097C369.549 66.2685 371.153 62.3928 374.009 59.5352C376.864 56.6776 380.737 55.0723 384.775 55.0723C388.813 55.0723 392.685 56.6776 395.541 59.5352C398.396 62.3928 400 66.2685 400 70.3097C400 74.3509 398.396 78.2266 395.541 81.0842C392.685 83.9417 388.813 85.5471 384.775 85.5471C380.737 85.5471 376.864 83.9417 374.009 81.0842C371.153 78.2266 369.549 74.3509 369.549 70.3097ZM393.407 70.3097C393.449 69.143 393.255 67.9799 392.838 66.8896C392.421 65.7994 391.789 64.8042 390.98 63.9635C390.171 63.1227 389.2 62.4536 388.127 61.9959C387.054 61.5381 385.9 61.3012 384.734 61.2992C383.576 61.2954 382.43 61.5263 381.364 61.9779C380.299 62.4295 379.335 63.0924 378.532 63.9267C377.73 64.7609 377.104 65.7493 376.693 66.8322C376.282 67.915 376.095 69.0699 376.142 70.2272C376.101 71.3939 376.294 72.557 376.711 73.6473C377.128 74.7375 377.76 75.7327 378.57 76.5734C379.379 77.4141 380.349 78.0833 381.422 78.541C382.495 78.9987 383.649 79.2357 384.816 79.2377C385.974 79.2444 387.122 79.0155 388.189 78.5649C389.256 78.1144 390.22 77.4515 391.024 76.6166C391.827 75.7817 392.453 74.7922 392.862 73.708C393.272 72.6239 393.458 71.4677 393.407 70.3097Z" fill="#05147D"/>
<path d="M145.642 12.1035H144.528V84.4967H145.642V12.1035Z" fill="#3346A8"/>
</svg>
